<svg width="36" height="34" viewBox="0 0 36 34" fill="none" xmlns="http://www.w3.org/2000/svg">
<path d="M7.5625 31.25C8.32189 31.25 8.9375 30.6344 8.9375 29.875C8.9375 29.1156 8.32189 28.5 7.5625 28.5C6.80311 28.5 6.1875 29.1156 6.1875 29.875C6.1875 30.6344 6.80311 31.25 7.5625 31.25Z" fill="#41403E"/>
<path d="M17.1875 31.25C17.9469 31.25 18.5625 30.6344 18.5625 29.875C18.5625 29.1156 17.9469 28.5 17.1875 28.5C16.4281 28.5 15.8125 29.1156 15.8125 29.875C15.8125 30.6344 16.4281 31.25 17.1875 31.25Z" fill="#41403E"/>
<path d="M19.6281 17.1898C19.5315 17.0716 19.4099 16.9765 19.2719 16.9112C19.134 16.846 18.9832 16.8122 18.8306 16.8125H5.75309L5.48969 15.318C5.4616 15.1589 5.37832 15.0147 5.25448 14.9108C5.13063 14.8069 4.97415 14.75 4.8125 14.75H2.0625C1.88016 14.75 1.7053 14.8224 1.57636 14.9514C1.44743 15.0803 1.375 15.2552 1.375 15.4375C1.375 15.6198 1.44743 15.7947 1.57636 15.9236C1.7053 16.0526 1.88016 16.125 2.0625 16.125H4.23586L6.19781 27.2445C6.2259 27.4036 6.30918 27.5478 6.43302 27.6517C6.55687 27.7556 6.71335 27.8125 6.875 27.8125H17.875C18.0573 27.8125 18.2322 27.7401 18.3611 27.6111C18.4901 27.4822 18.5625 27.3073 18.5625 27.125C18.5625 26.9427 18.4901 26.7678 18.3611 26.6389C18.2322 26.5099 18.0573 26.4375 17.875 26.4375H7.45164L7.2093 25.0625H17.5931C17.8315 25.0622 18.0625 24.9795 18.247 24.8285C18.4315 24.6774 18.5581 24.4673 18.6055 24.2336L19.843 18.0461C19.8728 17.8964 19.869 17.7419 19.8318 17.5938C19.7947 17.4457 19.7251 17.3077 19.6281 17.1898Z" fill="#41403E"/>
<circle cx="24" cy="12" r="11" fill="#DEAD6F" stroke="white" stroke-width="2"/>
<path d="M20.674 16.088C20.0653 16.088 19.5227 15.934 19.046 15.626C18.5767 15.3107 18.2063 14.856 17.935 14.262C17.6637 13.668 17.528 12.964 17.528 12.15C17.528 11.336 17.6637 10.632 17.935 10.038C18.2063 9.444 18.5767 8.993 19.046 8.685C19.5227 8.36967 20.0653 8.212 20.674 8.212C21.2753 8.212 21.8107 8.36967 22.28 8.685C22.7567 8.993 23.1307 9.444 23.402 10.038C23.6733 10.632 23.809 11.336 23.809 12.15C23.809 12.964 23.6733 13.668 23.402 14.262C23.1307 14.856 22.7567 15.3107 22.28 15.626C21.8107 15.934 21.2753 16.088 20.674 16.088ZM20.674 15.109C21.29 15.109 21.7813 14.856 22.148 14.35C22.522 13.844 22.709 13.1107 22.709 12.15C22.709 11.1893 22.522 10.456 22.148 9.95C21.7813 9.444 21.29 9.191 20.674 9.191C20.0507 9.191 19.552 9.444 19.178 9.95C18.8113 10.456 18.628 11.1893 18.628 12.15C18.628 13.1107 18.8113 13.844 19.178 14.35C19.552 14.856 20.0507 15.109 20.674 15.109ZM30.2447 15.043V16H24.7117V15.252L27.8467 12.227C28.228 11.8603 28.4847 11.545 28.6167 11.281C28.7487 11.0097 28.8147 10.7383 28.8147 10.467C28.8147 10.0637 28.6717 9.752 28.3857 9.532C28.107 9.30467 27.7037 9.191 27.1757 9.191C26.325 9.191 25.6687 9.46967 25.2067 10.027L24.4587 9.378C24.7594 9.01133 25.1517 8.72533 25.6357 8.52C26.127 8.31467 26.6734 8.212 27.2747 8.212C28.0814 8.212 28.723 8.40633 29.1997 8.795C29.6764 9.17633 29.9147 9.697 29.9147 10.357C29.9147 10.7677 29.8267 11.1563 29.6507 11.523C29.4747 11.8897 29.141 12.3077 28.6497 12.777L26.2957 15.043H30.2447Z" fill="white"/>
</svg>
