<svg width="23" height="23" viewBox="0 0 23 23" fill="none" xmlns="http://www.w3.org/2000/svg">
<path d="M20.1509 0.375H2.27588C1.70296 0.375 1.21598 0.575521 0.814941 0.976562C0.4139 1.3776 0.213379 1.86458 0.213379 2.4375V20.3125C0.213379 20.8854 0.4139 21.3724 0.814941 21.7734C1.21598 22.1745 1.70296 22.375 2.27588 22.375H20.1509C20.7238 22.375 21.2108 22.1745 21.6118 21.7734C22.0129 21.3724 22.2134 20.8854 22.2134 20.3125V2.4375C22.2134 1.86458 22.0129 1.3776 21.6118 0.976562C21.2108 0.575521 20.7238 0.375 20.1509 0.375ZM15.3384 3.8125C15.3384 3.6263 15.4028 3.46875 15.5317 3.33984C15.675 3.19661 15.8397 3.125 16.0259 3.125H18.7759C18.9621 3.125 19.1196 3.19661 19.2485 3.33984C19.3918 3.46875 19.4634 3.6263 19.4634 3.8125V6.5625C19.4634 6.7487 19.3918 6.91341 19.2485 7.05664C19.1196 7.18555 18.9621 7.25 18.7759 7.25H16.0259C15.8397 7.25 15.675 7.18555 15.5317 7.05664C15.4028 6.91341 15.3384 6.7487 15.3384 6.5625V3.8125ZM11.2134 7.25C12.3449 7.25 13.3117 7.65104 14.1138 8.45312C14.9302 9.25521 15.3384 10.2292 15.3384 11.375C15.3384 12.5065 14.9373 13.4805 14.1353 14.2969C13.3332 15.099 12.3592 15.5 11.2134 15.5C10.0819 15.5 9.10791 15.099 8.2915 14.2969C7.48942 13.4948 7.08838 12.5208 7.08838 11.375C7.08838 10.2435 7.48942 9.27669 8.2915 8.47461C9.09359 7.6582 10.0675 7.25 11.2134 7.25ZM19.4634 18.9375C19.4634 19.1237 19.3918 19.2884 19.2485 19.4316C19.1196 19.5605 18.9621 19.625 18.7759 19.625H3.65088C3.46468 19.625 3.29997 19.5605 3.15674 19.4316C3.02783 19.2884 2.96338 19.1237 2.96338 18.9375V10H4.46729C4.42432 10.2148 4.38851 10.4368 4.35986 10.666C4.34554 10.8952 4.33838 11.1315 4.33838 11.375C4.33838 12.3203 4.51742 13.2155 4.87549 14.0605C5.23356 14.8913 5.72054 15.6217 6.33643 16.252C6.96663 16.8678 7.6971 17.3548 8.52783 17.7129C9.37288 18.071 10.2681 18.25 11.2134 18.25C12.1587 18.25 13.0467 18.071 13.8774 17.7129C14.7225 17.3548 15.453 16.8678 16.0688 16.252C16.6991 15.6217 17.1932 14.8913 17.5513 14.0605C17.9093 13.2155 18.0884 12.3203 18.0884 11.375C18.0884 11.1458 18.0741 10.9167 18.0454 10.6875C18.0311 10.444 18.0024 10.2148 17.9595 10H19.4634V18.9375Z" fill="white"/>
</svg>
