<svg width="71" height="12" viewBox="0 0 71 12" fill="none" xmlns="http://www.w3.org/2000/svg">
<path d="M4.90991 0.882647L3.56729 3.72683L0.563373 4.18439C0.0246826 4.26602 -0.191205 4.95988 0.199449 5.35729L2.37272 7.56991L1.8587 10.6955C1.76617 11.2605 2.33571 11.6837 2.81272 11.4194L5.5 9.94364L8.18729 11.4194C8.66429 11.6815 9.23383 11.2605 9.1413 10.6955L8.62729 7.56991L10.8006 5.35729C11.1912 4.95988 10.9753 4.26602 10.4366 4.18439L7.43271 3.72683L6.09009 0.882647C5.84953 0.375678 5.15252 0.369234 4.90991 0.882647Z" fill="#DEAD6F"/>
<path d="M19.9099 0.882647L18.5673 3.72683L15.5634 4.18439C15.0247 4.26602 14.8088 4.95988 15.1994 5.35729L17.3727 7.56991L16.8587 10.6955C16.7662 11.2605 17.3357 11.6837 17.8127 11.4194L20.5 9.94364L23.1873 11.4194C23.6643 11.6815 24.2338 11.2605 24.1413 10.6955L23.6273 7.56991L25.8006 5.35729C26.1912 4.95988 25.9753 4.26602 25.4366 4.18439L22.4327 3.72683L21.0901 0.882647C20.8495 0.375678 20.1525 0.369234 19.9099 0.882647Z" fill="#DEAD6F"/>
<path d="M34.9099 0.882647L33.5673 3.72683L30.5634 4.18439C30.0247 4.26602 29.8088 4.95988 30.1994 5.35729L32.3727 7.56991L31.8587 10.6955C31.7662 11.2605 32.3357 11.6837 32.8127 11.4194L35.5 9.94364L38.1873 11.4194C38.6643 11.6815 39.2338 11.2605 39.1413 10.6955L38.6273 7.56991L40.8006 5.35729C41.1912 4.95988 40.9753 4.26602 40.4366 4.18439L37.4327 3.72683L36.0901 0.882647C35.8495 0.375678 35.1525 0.369234 34.9099 0.882647Z" fill="#DEAD6F"/>
<path d="M49.9099 0.882647L48.5673 3.72683L45.5634 4.18439C45.0247 4.26602 44.8088 4.95988 45.1994 5.35729L47.3727 7.56991L46.8587 10.6955C46.7662 11.2605 47.3357 11.6837 47.8127 11.4194L50.5 9.94364L53.1873 11.4194C53.6643 11.6815 54.2338 11.2605 54.1413 10.6955L53.6273 7.56991L55.8006 5.35729C56.1912 4.95988 55.9753 4.26602 55.4366 4.18439L52.4327 3.72683L51.0901 0.882647C50.8495 0.375678 50.1525 0.369234 49.9099 0.882647Z" fill="#DEAD6F"/>
<path d="M64.9099 0.882647L63.5673 3.72683L60.5634 4.18439C60.0247 4.26602 59.8088 4.95988 60.1994 5.35729L62.3727 7.56991L61.8587 10.6955C61.7662 11.2605 62.3357 11.6837 62.8127 11.4194L65.5 9.94364L68.1873 11.4194C68.6643 11.6815 69.2338 11.2605 69.1413 10.6955L68.6273 7.56991L70.8006 5.35729C71.1912 4.95988 70.9753 4.26602 70.4366 4.18439L67.4327 3.72683L66.0901 0.882647C65.8495 0.375678 65.1525 0.369234 64.9099 0.882647Z" fill="#DEAD6F"/>
</svg>
