<svg width="54" height="58" viewBox="0 0 44 47" fill="none" xmlns="http://www.w3.org/2000/svg">
<path d="M25.6945 1.8231C26.8801 0.968095 28.2595 0.700195 29.2 0.700195H33.3211C34.6122 0.700089 35.879 1.05078 36.9862 1.7148L42.0677 4.7643C42.4893 5.01756 42.8381 5.3756 43.0803 5.80359C43.3226 6.23158 43.4499 6.71497 43.45 7.20675V10.6752C43.45 11.809 42.9996 12.8964 42.1979 13.6981C41.3962 14.4998 40.3088 14.9502 39.175 14.9502H37.75V37.8585C38.9498 38.0437 40.1525 38.4912 41.1557 39.3262C42.6092 40.5346 43.45 42.3957 43.45 44.8752C43.45 45.2531 43.2999 45.6156 43.0326 45.8828C42.7654 46.1501 42.4029 46.3002 42.025 46.3002H9.24999C7.45623 46.3004 5.70783 45.7364 4.25227 44.6881C2.79671 43.6398 1.70773 42.1603 1.13945 40.4589C0.571169 38.7575 0.552384 36.9205 1.08575 35.2079C1.61912 33.4953 2.67763 31.9937 4.11144 30.9159C4.41395 30.6977 4.78997 30.6067 5.15877 30.6627C5.52756 30.7186 5.85973 30.9169 6.08395 31.215C6.30818 31.5131 6.40658 31.8872 6.35803 32.257C6.30948 32.6269 6.11786 32.9629 5.82429 33.193C4.86802 33.9115 4.16199 34.9126 3.80616 36.0545C3.45034 37.1964 3.46275 38.4214 3.84165 39.5559C4.22055 40.6903 4.94673 41.6769 5.91736 42.3758C6.888 43.0747 8.05391 43.4506 9.24999 43.4502C10.0708 43.4502 10.5895 43.2507 10.9315 43.0227C11.2696 42.7894 11.54 42.4708 11.7152 42.0993C11.9442 41.631 12.0751 41.1209 12.1 40.6002V40.4719L12.1114 40.1584C12.2059 38.5088 12.454 36.8715 12.8524 35.2678C13.6019 32.2753 15.121 28.4392 18.2161 25.3413C23.4715 20.0887 23.5 13.0435 23.5 10.6752V6.4002C23.5 4.22565 24.4405 2.7294 25.6945 1.8231ZM26.1334 14.6652C25.6916 18.2448 24.3407 23.2494 20.2339 27.3591C17.629 29.9611 16.298 33.25 15.6197 35.9575C15.2664 37.3771 15.045 38.8264 14.9585 40.2867C14.9547 40.3693 14.9519 40.452 14.95 40.5346V40.6942L14.9386 40.8852C14.8756 41.7793 14.6333 42.6517 14.2261 43.4502H31.8191C31.5341 42.5382 30.9556 41.6005 29.9609 41.079C29.2825 40.7428 28.5319 40.5784 27.775 40.6002H24.925C24.5471 40.6002 24.1846 40.4501 23.9174 40.1828C23.6501 39.9156 23.5 39.5531 23.5 39.1752C23.5 38.7973 23.6501 38.4348 23.9174 38.1676C24.1846 37.9003 24.5471 37.7502 24.925 37.7502H27.775C28.2766 37.7502 28.7497 37.7901 29.2 37.8642V30.6252C29.2 30.2473 29.3501 29.8848 29.6174 29.6176C29.8846 29.3503 30.2471 29.2002 30.625 29.2002C31.0029 29.2002 31.3654 29.3503 31.6326 29.6176C31.8999 29.8848 32.05 30.2473 32.05 30.6252V39.027C33.703 40.2183 34.4639 41.991 34.7518 43.4502H40.4518C40.238 42.5154 39.8105 41.914 39.3317 41.5179C38.5993 40.9051 37.5362 40.6002 36.325 40.6002C35.9471 40.6002 35.5846 40.4501 35.3174 40.1828C35.0501 39.9156 34.9 39.5531 34.9 39.1752V13.5252C34.9 13.1473 35.0501 12.7848 35.3174 12.5176C35.5846 12.2503 35.9471 12.1002 36.325 12.1002H39.175C39.5529 12.1002 39.9154 11.9501 40.1826 11.6828C40.4499 11.4156 40.6 11.0531 40.6 10.6752V7.20675L35.5213 4.15725C34.8565 3.75924 34.096 3.54941 33.3211 3.5502H29.2C28.7155 3.5502 27.9574 3.70695 27.3617 4.1373C26.8345 4.5135 26.35 5.15475 26.35 6.4002V10.6752C26.35 10.9231 26.4355 11.325 26.6521 11.6242C26.8145 11.8522 27.0995 12.1002 27.775 12.1002C28.4504 12.1002 28.7354 11.8494 28.8979 11.6242C29.0877 11.3435 29.1925 11.014 29.2 10.6752C29.2 10.2973 29.3501 9.93481 29.6174 9.66757C29.8846 9.40033 30.2471 9.2502 30.625 9.2502C31.0029 9.2502 31.3654 9.40033 31.6326 9.66757C31.8999 9.93481 32.05 10.2973 32.05 10.6752C32.05 11.3791 31.8505 12.4023 31.2121 13.2886C30.5195 14.2491 29.3795 14.9502 27.775 14.9502C27.215 14.9555 26.6588 14.859 26.1334 14.6652Z" fill="#DEAD6F"/>
</svg>
